<svg xmlns="http://www.w3.org/2000/svg" viewBox="0 0 320 180" shape-rendering="crispEdges"><rect width="320" height="180" fill="#dfd0a7"/><rect x="45" y="32" width="48" height="54" fill="#c3b596"/><rect x="42" y="28" width="48" height="54" fill="#efe5c6"/><rect x="58" y="38" width="4" height="4" fill="#bb644f"/><rect x="62" y="38" width="4" height="4" fill="#bb644f"/><rect x="54" y="42" width="4" height="4" fill="#bb644f"/><rect x="58" y="42" width="4" height="4" fill="#bb644f"/><rect x="62" y="42" width="4" height="4" fill="#bb644f"/><rect x="66" y="42" width="4" height="4" fill="#bb644f"/><rect x="50" y="46" width="4" height="4" fill="#bb644f"/><rect x="54" y="46" width="4" height="4" fill="#bb644f"/><rect x="58" y="46" width="4" height="4" fill="#f4d17e"/><rect x="62" y="46" width="4" height="4" fill="#f4d17e"/><rect x="66" y="46" width="4" height="4" fill="#bb644f"/><rect x="70" y="46" width="4" height="4" fill="#bb644f"/><rect x="50" y="50" width="4" height="4" fill="#bb644f"/><rect x="54" y="50" width="4" height="4" fill="#bb644f"/><rect x="58" y="50" width="4" height="4" fill="#f4d17e"/><rect x="62" y="50" width="4" height="4" fill="#f4d17e"/><rect x="66" y="50" width="4" height="4" fill="#bb644f"/><rect x="70" y="50" width="4" height="4" fill="#bb644f"/><rect x="54" y="54" width="4" height="4" fill="#bb644f"/><rect x="58" y="54" width="4" height="4" fill="#bb644f"/><rect x="62" y="54" width="4" height="4" fill="#bb644f"/><rect x="66" y="54" width="4" height="4" fill="#bb644f"/><rect x="58" y="58" width="4" height="4" fill="#bb644f"/><rect x="62" y="58" width="4" height="4" fill="#bb644f"/><rect x="62" y="62" width="4" height="4" fill="#678263"/><rect x="58" y="66" width="4" height="4" fill="#678263"/><rect x="62" y="66" width="4" height="4" fill="#678263"/><rect x="66" y="66" width="4" height="4" fill="#678263"/><rect x="107" y="32" width="48" height="54" fill="#c3b596"/><rect x="104" y="28" width="48" height="54" fill="#efe5c6"/><rect x="108" y="32" width="40" height="46" fill="#899979"/><rect x="126" y="44" width="4" height="4" fill="#b8c6a0"/><rect x="122" y="48" width="4" height="4" fill="#b8c6a0"/><rect x="126" y="48" width="4" height="4" fill="#b8c6a0"/><rect x="130" y="48" width="4" height="4" fill="#b8c6a0"/><rect x="118" y="52" width="4" height="4" fill="#b8c6a0"/><rect x="122" y="52" width="4" height="4" fill="#b8c6a0"/><rect x="126" y="52" width="4" height="4" fill="#b8c6a0"/><rect x="130" y="52" width="4" height="4" fill="#b8c6a0"/><rect x="134" y="52" width="4" height="4" fill="#b8c6a0"/><rect x="122" y="56" width="4" height="4" fill="#b8c6a0"/><rect x="126" y="56" width="4" height="4" fill="#b8c6a0"/><rect x="130" y="56" width="4" height="4" fill="#b8c6a0"/><rect x="126" y="60" width="4" height="4" fill="#b8c6a0"/><rect x="169" y="32" width="48" height="54" fill="#c3b596"/><rect x="166" y="28" width="48" height="54" fill="#efe5c6"/><rect x="182" y="38" width="4" height="4" fill="#d2a14b"/><rect x="186" y="38" width="4" height="4" fill="#d2a14b"/><rect x="178" y="42" width="4" height="4" fill="#d2a14b"/><rect x="182" y="42" width="4" height="4" fill="#d2a14b"/><rect x="186" y="42" width="4" height="4" fill="#d2a14b"/><rect x="190" y="42" width="4" height="4" fill="#d2a14b"/><rect x="174" y="46" width="4" height="4" fill="#d2a14b"/><rect x="178" y="46" width="4" height="4" fill="#d2a14b"/><rect x="182" y="46" width="4" height="4" fill="#f4d17e"/><rect x="186" y="46" width="4" height="4" fill="#f4d17e"/><rect x="190" y="46" width="4" height="4" fill="#d2a14b"/><rect x="194" y="46" width="4" height="4" fill="#d2a14b"/><rect x="174" y="50" width="4" height="4" fill="#d2a14b"/><rect x="178" y="50" width="4" height="4" fill="#d2a14b"/><rect x="182" y="50" width="4" height="4" fill="#f4d17e"/><rect x="186" y="50" width="4" height="4" fill="#f4d17e"/><rect x="190" y="50" width="4" height="4" fill="#d2a14b"/><rect x="194" y="50" width="4" height="4" fill="#d2a14b"/><rect x="178" y="54" width="4" height="4" fill="#d2a14b"/><rect x="182" y="54" width="4" height="4" fill="#d2a14b"/><rect x="186" y="54" width="4" height="4" fill="#d2a14b"/><rect x="190" y="54" width="4" height="4" fill="#d2a14b"/><rect x="182" y="58" width="4" height="4" fill="#d2a14b"/><rect x="186" y="58" width="4" height="4" fill="#d2a14b"/><rect x="186" y="62" width="4" height="4" fill="#678263"/><rect x="182" y="66" width="4" height="4" fill="#678263"/><rect x="186" y="66" width="4" height="4" fill="#678263"/><rect x="190" y="66" width="4" height="4" fill="#678263"/><rect x="231" y="32" width="48" height="54" fill="#c3b596"/><rect x="228" y="28" width="48" height="54" fill="#efe5c6"/><rect x="244" y="38" width="4" height="4" fill="#699a7b"/><rect x="248" y="38" width="4" height="4" fill="#699a7b"/><rect x="240" y="42" width="4" height="4" fill="#699a7b"/><rect x="244" y="42" width="4" height="4" fill="#699a7b"/><rect x="248" y="42" width="4" height="4" fill="#699a7b"/><rect x="252" y="42" width="4" height="4" fill="#699a7b"/><rect x="236" y="46" width="4" height="4" fill="#699a7b"/><rect x="240" y="46" width="4" height="4" fill="#699a7b"/><rect x="244" y="46" width="4" height="4" fill="#f4d17e"/><rect x="248" y="46" width="4" height="4" fill="#f4d17e"/><rect x="252" y="46" width="4" height="4" fill="#699a7b"/><rect x="256" y="46" width="4" height="4" fill="#699a7b"/><rect x="236" y="50" width="4" height="4" fill="#699a7b"/><rect x="240" y="50" width="4" height="4" fill="#699a7b"/><rect x="244" y="50" width="4" height="4" fill="#f4d17e"/><rect x="248" y="50" width="4" height="4" fill="#f4d17e"/><rect x="252" y="50" width="4" height="4" fill="#699a7b"/><rect x="256" y="50" width="4" height="4" fill="#699a7b"/><rect x="240" y="54" width="4" height="4" fill="#699a7b"/><rect x="244" y="54" width="4" height="4" fill="#699a7b"/><rect x="248" y="54" width="4" height="4" fill="#699a7b"/><rect x="252" y="54" width="4" height="4" fill="#699a7b"/><rect x="244" y="58" width="4" height="4" fill="#699a7b"/><rect x="248" y="58" width="4" height="4" fill="#699a7b"/><rect x="248" y="62" width="4" height="4" fill="#678263"/><rect x="244" y="66" width="4" height="4" fill="#678263"/><rect x="248" y="66" width="4" height="4" fill="#678263"/><rect x="252" y="66" width="4" height="4" fill="#678263"/><rect x="45" y="102" width="48" height="54" fill="#c3b596"/><rect x="42" y="98" width="48" height="54" fill="#efe5c6"/><rect x="46" y="102" width="40" height="46" fill="#899979"/><rect x="64" y="114" width="4" height="4" fill="#b8c6a0"/><rect x="60" y="118" width="4" height="4" fill="#b8c6a0"/><rect x="64" y="118" width="4" height="4" fill="#b8c6a0"/><rect x="68" y="118" width="4" height="4" fill="#b8c6a0"/><rect x="56" y="122" width="4" height="4" fill="#b8c6a0"/><rect x="60" y="122" width="4" height="4" fill="#b8c6a0"/><rect x="64" y="122" width="4" height="4" fill="#b8c6a0"/><rect x="68" y="122" width="4" height="4" fill="#b8c6a0"/><rect x="72" y="122" width="4" height="4" fill="#b8c6a0"/><rect x="60" y="126" width="4" height="4" fill="#b8c6a0"/><rect x="64" y="126" width="4" height="4" fill="#b8c6a0"/><rect x="68" y="126" width="4" height="4" fill="#b8c6a0"/><rect x="64" y="130" width="4" height="4" fill="#b8c6a0"/><rect x="107" y="102" width="48" height="54" fill="#c3b596"/><rect x="104" y="98" width="48" height="54" fill="#efe5c6"/><rect x="120" y="108" width="4" height="4" fill="#7a83a9"/><rect x="124" y="108" width="4" height="4" fill="#7a83a9"/><rect x="116" y="112" width="4" height="4" fill="#7a83a9"/><rect x="120" y="112" width="4" height="4" fill="#7a83a9"/><rect x="124" y="112" width="4" height="4" fill="#7a83a9"/><rect x="128" y="112" width="4" height="4" fill="#7a83a9"/><rect x="112" y="116" width="4" height="4" fill="#7a83a9"/><rect x="116" y="116" width="4" height="4" fill="#7a83a9"/><rect x="120" y="116" width="4" height="4" fill="#f4d17e"/><rect x="124" y="116" width="4" height="4" fill="#f4d17e"/><rect x="128" y="116" width="4" height="4" fill="#7a83a9"/><rect x="132" y="116" width="4" height="4" fill="#7a83a9"/><rect x="112" y="120" width="4" height="4" fill="#7a83a9"/><rect x="116" y="120" width="4" height="4" fill="#7a83a9"/><rect x="120" y="120" width="4" height="4" fill="#f4d17e"/><rect x="124" y="120" width="4" height="4" fill="#f4d17e"/><rect x="128" y="120" width="4" height="4" fill="#7a83a9"/><rect x="132" y="120" width="4" height="4" fill="#7a83a9"/><rect x="116" y="124" width="4" height="4" fill="#7a83a9"/><rect x="120" y="124" width="4" height="4" fill="#7a83a9"/><rect x="124" y="124" width="4" height="4" fill="#7a83a9"/><rect x="128" y="124" width="4" height="4" fill="#7a83a9"/><rect x="120" y="128" width="4" height="4" fill="#7a83a9"/><rect x="124" y="128" width="4" height="4" fill="#7a83a9"/><rect x="124" y="132" width="4" height="4" fill="#678263"/><rect x="120" y="136" width="4" height="4" fill="#678263"/><rect x="124" y="136" width="4" height="4" fill="#678263"/><rect x="128" y="136" width="4" height="4" fill="#678263"/><rect x="169" y="102" width="48" height="54" fill="#c3b596"/><rect x="166" y="98" width="48" height="54" fill="#efe5c6"/><rect x="182" y="108" width="4" height="4" fill="#d2a14b"/><rect x="186" y="108" width="4" height="4" fill="#d2a14b"/><rect x="178" y="112" width="4" height="4" fill="#d2a14b"/><rect x="182" y="112" width="4" height="4" fill="#d2a14b"/><rect x="186" y="112" width="4" height="4" fill="#d2a14b"/><rect x="190" y="112" width="4" height="4" fill="#d2a14b"/><rect x="174" y="116" width="4" height="4" fill="#d2a14b"/><rect x="178" y="116" width="4" height="4" fill="#d2a14b"/><rect x="182" y="116" width="4" height="4" fill="#f4d17e"/><rect x="186" y="116" width="4" height="4" fill="#f4d17e"/><rect x="190" y="116" width="4" height="4" fill="#d2a14b"/><rect x="194" y="116" width="4" height="4" fill="#d2a14b"/><rect x="174" y="120" width="4" height="4" fill="#d2a14b"/><rect x="178" y="120" width="4" height="4" fill="#d2a14b"/><rect x="182" y="120" width="4" height="4" fill="#f4d17e"/><rect x="186" y="120" width="4" height="4" fill="#f4d17e"/><rect x="190" y="120" width="4" height="4" fill="#d2a14b"/><rect x="194" y="120" width="4" height="4" fill="#d2a14b"/><rect x="178" y="124" width="4" height="4" fill="#d2a14b"/><rect x="182" y="124" width="4" height="4" fill="#d2a14b"/><rect x="186" y="124" width="4" height="4" fill="#d2a14b"/><rect x="190" y="124" width="4" height="4" fill="#d2a14b"/><rect x="182" y="128" width="4" height="4" fill="#d2a14b"/><rect x="186" y="128" width="4" height="4" fill="#d2a14b"/><rect x="186" y="132" width="4" height="4" fill="#678263"/><rect x="182" y="136" width="4" height="4" fill="#678263"/><rect x="186" y="136" width="4" height="4" fill="#678263"/><rect x="190" y="136" width="4" height="4" fill="#678263"/><rect x="231" y="102" width="48" height="54" fill="#c3b596"/><rect x="228" y="98" width="48" height="54" fill="#efe5c6"/><rect x="232" y="102" width="40" height="46" fill="#899979"/><rect x="250" y="114" width="4" height="4" fill="#b8c6a0"/><rect x="246" y="118" width="4" height="4" fill="#b8c6a0"/><rect x="250" y="118" width="4" height="4" fill="#b8c6a0"/><rect x="254" y="118" width="4" height="4" fill="#b8c6a0"/><rect x="242" y="122" width="4" height="4" fill="#b8c6a0"/><rect x="246" y="122" width="4" height="4" fill="#b8c6a0"/><rect x="250" y="122" width="4" height="4" fill="#b8c6a0"/><rect x="254" y="122" width="4" height="4" fill="#b8c6a0"/><rect x="258" y="122" width="4" height="4" fill="#b8c6a0"/><rect x="246" y="126" width="4" height="4" fill="#b8c6a0"/><rect x="250" y="126" width="4" height="4" fill="#b8c6a0"/><rect x="254" y="126" width="4" height="4" fill="#b8c6a0"/><rect x="250" y="130" width="4" height="4" fill="#b8c6a0"/></svg>